<?xml version="1.0" encoding="UTF-8"?>
<!DOCTYPE svg PUBLIC "-//W3C//DTD SVG 1.1//EN" "http://www.w3.org/Graphics/SVG/1.1/DTD/svg11.dtd">
<!-- Creator: CorelDRAW 2020 (64-Bit) -->
<svg xmlns="http://www.w3.org/2000/svg" xml:space="preserve" width="478.166mm" height="134.156mm" version="1.1" style="shape-rendering:geometricPrecision; text-rendering:geometricPrecision; image-rendering:optimizeQuality; fill-rule:evenodd; clip-rule:evenodd"
viewBox="0 0 47814.46 13415.02"
 xmlns:xlink="http://www.w3.org/1999/xlink"
 xmlns:xodm="http://www.corel.com/coreldraw/odm/2003">
 <defs>
  <style type="text/css">
   <![CDATA[
    .fil0 {fill:#2B2A29;fill-rule:nonzero}
   ]]>
  </style>
 </defs>
 <g id="Слой_x0020_1">
  <metadata id="CorelCorpID_0Corel-Layer"/>
  <path class="fil0" d="M4800.66 945.08l0 4633.36c0,519.83 425.26,945.08 945.09,945.08l0 0c519.82,0 945.08,-425.25 945.08,-945.08l0 -4633.36c0,-519.83 -425.26,-945.08 -945.08,-945.08l0 0c-519.83,0 -945.09,425.25 -945.09,945.08zm-2908.03 6849.66c0,2058.73 1668.95,3727.66 3727.63,3727.66 2058.73,0 3727.66,-1668.94 3727.66,-3727.66 0,-1464.33 -844.51,-2731.19 -2072.95,-3340.83l0 -2031.68c2296.37,706.44 3965.57,2844.48 3965.57,5372.51 0,3103.98 -2516.3,5620.28 -5620.29,5620.28 -3103.95,0 -5620.25,-2516.3 -5620.25,-5620.28 0,-2619.25 1791.8,-4820.03 4216.49,-5443.49l0 1989.5c-1362.86,554.5 -2323.88,1891.94 -2323.88,3453.99zm36686.64 -5144.58l2082.59 0 4968.28 6910.85 0 -6910.85 2184.32 0 0 10501.57 -2098.67 0 -4952.2 -6888.92 0 6888.92 -2184.32 0 0 -10501.57zm-8994.32 -146.26l6295.98 0 0 1959.91 -4111.66 0 0 1886.74 4111.66 0 0 1930.67 -4111.66 0 0 2764.34 4111.66 0 0 1959.91 -6295.98 0 0 -10501.57zm-8617.07 146.26l7220.99 0 0 1974.51 -2538.92 0 0 8527.06 -2232.45 0 0 -8527.06 -2449.62 0 0 -1974.51zm-1405.13 1428.49l-1627.55 1306.61c-570.16,-721.59 -1151.06,-1082.36 -1742.6,-1082.36 -289.13,0 -524.69,70.71 -706.72,209.65 -184.69,141.37 -275.69,299.86 -275.69,475.37 0,175.51 64.22,343.7 195.38,499.72 179.35,209.65 717.42,658.16 1614.13,1348.03 837.88,638.7 1346.52,1040.89 1525.82,1206.66 444.38,409.55 760.24,799.57 947.62,1172.56 184.69,375.37 278.43,782.5 278.43,1223.69 0,862.96 -326.6,1572.33 -982.45,2135.42 -653.15,560.67 -1507.08,841.03 -2561.75,841.03 -821.8,0 -1536.55,-182.83 -2146.84,-548.5 -610.33,-368.09 -1135.01,-943.37 -1568.65,-1728.33l1849.73 -1014.08c556.77,926.34 1196.53,1389.5 1919.29,1389.5 377.45,0 695.98,-99.96 953.01,-299.82 256.95,-199.9 385.42,-431.48 385.42,-692.34 0,-236.43 -96.39,-475.33 -291.78,-714.23 -192.73,-236.46 -621.06,-602.09 -1282.21,-1092.1 -1258.13,-931.19 -2069.2,-1650.31 -2435.97,-2157.34 -366.72,-507.04 -551.42,-1011.65 -551.42,-1516.26 0,-728.87 305.17,-1352.89 912.8,-1872.14 610.32,-521.65 1362.56,-782.5 2256.62,-782.5 575.5,0 1124.27,121.87 1643.6,363.23 521.99,243.76 1084.14,684.98 1691.77,1328.54z"/>
 </g>
</svg>
